<?xml version="1.0" standalone="no"?>
<!DOCTYPE svg PUBLIC "-//W3C//DTD SVG 20010904//EN"
 "http://www.w3.org/TR/2001/REC-SVG-20010904/DTD/svg10.dtd">
<svg version="1.0" xmlns="http://www.w3.org/2000/svg"
 width="512.000000pt" height="512.000000pt" viewBox="0 0 512.000000 512.000000"
 preserveAspectRatio="xMidYMid meet">
<metadata>
Created by potrace 1.11, written by Peter Selinger 2001-2013
</metadata>
<g transform="translate(0.000000,512.000000) scale(0.100000,-0.100000)"
fill="#000000" stroke="none">
<path d="M0 2560 l0 -2560 2560 0 2560 0 0 2560 0 2560 -2560 0 -2560 0 0
-2560z m3970 1763 c204 -59 325 -166 366 -323 29 -115 -14 -248 -102 -315 -44
-34 -148 -81 -199 -91 l-38 -7 79 -26 c136 -44 234 -123 286 -229 19 -39 23
-63 23 -142 0 -117 -21 -167 -105 -251 -113 -114 -277 -170 -500 -170 -281 0
-485 92 -567 256 -40 78 -39 95 9 142 l43 43 18 -50 c36 -103 175 -200 333
-236 105 -23 303 -15 388 15 85 30 138 64 185 117 49 56 65 100 59 169 -9 108
-88 189 -234 240 -86 30 -165 43 -321 51 l-123 7 0 57 0 57 133 7 c224 12 338
44 420 116 48 42 69 91 70 160 1 178 -185 303 -447 301 -189 -1 -342 -66 -426
-183 l-28 -38 -46 50 c-25 27 -46 54 -46 59 0 6 24 35 53 64 57 59 197 134
292 157 134 33 296 30 425 -7z m-1260 -1593 c0 -1426 -2 -1372 54 -1386 25 -6
26 -8 26 -95 l0 -89 -32 -2 c-90 -4 -130 12 -177 69 -38 46 -51 106 -51 235
l0 102 -44 -59 c-78 -107 -214 -223 -332 -283 -271 -138 -598 -128 -857 26
-357 212 -550 600 -516 1038 36 460 354 856 753 939 99 20 274 21 358 1 211
-49 460 -219 576 -393 l37 -56 2 619 c2 340 5 625 8 632 3 8 33 12 100 12 l95
0 0 -1310z"/>
<path d="M1680 3064 c-148 -26 -237 -62 -346 -140 -313 -222 -443 -698 -294
-1081 40 -104 114 -217 195 -299 198 -202 461 -285 705 -223 160 41 276 107
406 231 58 56 93 100 120 151 l39 72 3 382 c3 436 10 400 -93 538 -74 100
-142 165 -237 228 -94 62 -154 90 -248 118 -65 19 -202 32 -250 23z"/>
</g>
</svg>
